<?xml version="1.0" standalone="no"?>
<!DOCTYPE svg PUBLIC "-//W3C//DTD SVG 20010904//EN"
 "http://www.w3.org/TR/2001/REC-SVG-20010904/DTD/svg10.dtd">
<svg version="1.0" xmlns="http://www.w3.org/2000/svg"
 width="512.000000pt" height="512.000000pt" viewBox="0 0 512.000000 512.000000"
 preserveAspectRatio="xMidYMid meet">
<metadata>
Created by potrace 1.11, written by Peter Selinger 2001-2013
</metadata>
<g transform="translate(0.000000,512.000000) scale(0.100000,-0.100000)"
fill="#000000" stroke="none">
<path d="M0 2560 l0 -2560 2560 0 2560 0 0 2560 0 2560 -2560 0 -2560 0 0
-2560z m2706 2143 c-11 -36 -226 -925 -226 -934 0 -5 239 -9 609 -9 l608 0 43
178 c23 97 47 196 52 220 7 28 15 41 23 38 7 -2 272 -206 590 -452 l577 -448
-54 -27 c-29 -15 -381 -203 -783 -417 -401 -214 -732 -388 -733 -386 -3 2 79
438 95 502 l5 22 -1476 0 c-922 0 -1476 4 -1476 9 0 10 166 711 176 744 5 16
33 17 410 17 222 0 404 2 404 3 0 13 190 800 194 804 4 5 911 150 949 152 13
1 17 -4 13 -16z m-546 -2248 c0 -9 -36 -165 -79 -348 -107 -451 -105 -437
-105 -567 -1 -99 2 -122 22 -166 41 -91 134 -159 250 -183 145 -30 428 -4 637
58 55 16 101 28 103 27 7 -8 70 -702 64 -708 -26 -24 -387 -120 -547 -145
-158 -25 -569 -25 -710 1 -232 42 -382 113 -515 246 -136 135 -206 295 -232
530 -14 126 -1 333 33 541 19 119 152 699 164 719 4 6 178 10 461 10 401 0
454 -2 454 -15z"/>
</g>
</svg>
