<?xml version="1.0" encoding="iso-8859-1"?>
<!-- Generator: Adobe Illustrator 19.0.0, SVG Export Plug-In . SVG Version: 6.00 Build 0)  -->
<svg xmlns="http://www.w3.org/2000/svg" xmlns:xlink="http://www.w3.org/1999/xlink" version="1.1" id="Capa_1" x="0px" y="0px" viewBox="0 0 512 512" style="enable-background:new 0 0 512 512;" xml:space="preserve">
<rect y="85.333" style="fill:#D80027;" width="512" height="341.337"/>
<polygon style="fill:#496E2D;" points="301.255,255.996 512,115.499 512,85.33 466.745,85.33 256,225.826 45.255,85.33 0,85.33   0,115.499 210.745,255.996 0,396.493 0,426.662 45.255,426.662 256,286.166 466.745,426.662 512,426.662 512,396.493 "/>
<polygon style="fill:#F0F0F0;" points="278.261,233.735 278.261,202.254 278.261,85.33 233.739,85.33 233.739,202.254   233.74,233.735 233.74,233.735 202.258,233.735 0,233.735 0,278.257 202.258,278.257 233.739,278.257 233.739,309.738   233.739,426.662 278.261,426.662 278.261,309.739 278.261,278.258 278.261,278.257 309.743,278.257 512,278.257 512,233.735   309.742,233.735 278.262,233.735 "/>
<g>
</g>
<g>
</g>
<g>
</g>
<g>
</g>
<g>
</g>
<g>
</g>
<g>
</g>
<g>
</g>
<g>
</g>
<g>
</g>
<g>
</g>
<g>
</g>
<g>
</g>
<g>
</g>
<g>
</g>
</svg>
