<svg xmlns="http://www.w3.org/2000/svg" xmlns:xlink="http://www.w3.org/1999/xlink" id="Capa_1" x="0" y="0" version="1.1" viewBox="0 0 512 512" xml:space="preserve" style="enable-background:new 0 0 512 512"><rect style="fill:#fff" width="512" height="341.337" y="85.331"/><path style="fill:#d80027" d="M318.33,255.994c0,15.583-27.906,54.539-62.33,54.539s-62.33-38.957-62.33-54.539 c0-34.424,27.906-62.33,62.33-62.33S318.33,221.57,318.33,255.994z"/><path style="fill:#0052b4" d="M318.33,255.994c0,34.424-27.906,62.33-62.33,62.33s-62.33-27.906-62.33-62.33"/><rect width="23.374" height="15.582" x="324.205" y="300.55" transform="matrix(0.7071 -0.7071 0.7071 0.7071 -119.6501 327.8224)"/><rect width="23.374" height="15.582" x="296.657" y="328.085" transform="matrix(0.7071 -0.7071 0.7071 0.7071 -147.1889 316.408)"/><rect width="23.374" height="15.582" x="357.26" y="333.586" transform="matrix(0.7071 -0.7071 0.7071 0.7071 -133.3277 360.8719)"/><rect width="23.374" height="15.582" x="329.712" y="361.143" transform="matrix(0.7071 -0.7071 0.7071 0.7071 -160.8823 349.464)"/><rect width="23.374" height="15.582" x="340.732" y="317.068" transform="matrix(0.7071 -0.7071 0.7071 0.7071 -126.4889 344.3472)"/><rect width="23.374" height="15.582" x="313.185" y="344.614" transform="matrix(0.7071 -0.7071 0.7071 0.7071 -154.0356 332.936)"/><rect width="62.33" height="15.582" x="307.483" y="165.555" transform="matrix(-0.7071 -0.7071 0.7071 -0.7071 455.5344 535.3814)"/><rect width="23.374" height="15.581" x="296.656" y="168.315" transform="matrix(-0.7071 -0.7071 0.7071 -0.7071 401.8486 518.6624)"/><rect width="23.374" height="15.581" x="324.193" y="195.864" transform="matrix(-0.7071 -0.7071 0.7071 -0.7071 429.3763 585.1636)"/><rect width="23.374" height="15.582" x="329.693" y="135.257" transform="matrix(-0.7071 -0.7071 0.7071 -0.7071 481.6206 485.591)"/><rect width="23.374" height="15.582" x="357.252" y="162.807" transform="matrix(-0.7071 -0.7071 0.7071 -0.7071 509.1863 552.108)"/><rect width="62.33" height="15.582" x="125.671" y="347.369" transform="matrix(0.7071 0.7071 -0.7071 0.7071 297.0721 -6.8758)"/><rect width="23.374" height="15.581" x="175.435" y="344.62" transform="matrix(0.7071 0.7071 -0.7071 0.7071 303.9983 -29.0962)"/><rect width="23.374" height="15.582" x="147.898" y="317.072" transform="matrix(0.7071 0.7071 -0.7071 0.7071 276.4547 -17.6934)"/><rect width="62.33" height="15.582" x="158.724" y="314.322" transform="matrix(0.7071 0.7071 -0.7071 0.7071 283.386 -39.9269)"/><rect width="62.33" height="15.582" x="125.672" y="149.023" transform="matrix(-0.7071 0.7071 -0.7071 -0.7071 378.6212 156.7987)"/><rect width="62.33" height="15.582" x="142.182" y="165.56" transform="matrix(-0.7071 0.7071 -0.7071 -0.7071 418.4998 173.3536)"/><rect width="62.33" height="15.581" x="158.712" y="182.089" transform="matrix(-0.7071 0.7071 -0.7071 -0.7071 458.4043 189.8812)"/></svg>