<svg xmlns="http://www.w3.org/2000/svg" xmlns:xlink="http://www.w3.org/1999/xlink" id="Capa_1" x="0" y="0" version="1.1" viewBox="0 0 512 512" xml:space="preserve" style="enable-background:new 0 0 512 512"><rect style="fill:#ffda44" width="512" height="341.337" y="85.333"/><g><polygon style="fill:#d80027" points="383.875 426.662 256 252.286 282.827 426.662"/><polygon style="fill:#d80027" points="133.565 85.33 256 252.286 230.314 85.33"/><polygon style="fill:#d80027" points="229.171 426.662 256 252.286 128.124 426.662"/><polygon style="fill:#d80027" points="0 85.33 0 212.9 256 252.286 28.333 85.33"/><polygon style="fill:#d80027" points="0 426.662 18.212 426.662 256 252.286 0 291.67"/><polygon style="fill:#d80027" points="256 252.286 512 212.9 512 85.33 483.669 85.33"/><polygon style="fill:#d80027" points="281.686 85.33 256 252.286 378.434 85.33"/><polygon style="fill:#d80027" points="512 426.662 512 291.671 256 252.286 493.787 426.662"/><circle style="fill:#d80027" cx="256" cy="252.29" r="59.359"/></g><circle style="fill:#ffda44" cx="256" cy="252.29" r="44.522"/></svg>