<svg xmlns="http://www.w3.org/2000/svg" xmlns:xlink="http://www.w3.org/1999/xlink" id="Capa_1" x="0" y="0" version="1.1" viewBox="0 0 512 512" xml:space="preserve" style="enable-background:new 0 0 512 512"><rect style="fill:#f0f0f0" width="512" height="341.337" y="85.331"/><g><rect style="fill:#d80027" width="512" height="42.663" y="127.994"/><rect style="fill:#d80027" width="512" height="42.663" y="213.331"/><rect style="fill:#d80027" width="512" height="42.663" y="298.657"/><rect style="fill:#d80027" width="512" height="42.663" y="383.994"/></g><rect style="fill:#0052b4" width="256" height="183.797" y="85.331"/><g><path style="fill:#ffda44" d="M140.919,219.429c-23.308,0-42.202-18.895-42.202-42.202s18.895-42.202,42.202-42.202 c7.267,0,14.104,1.838,20.075,5.072c-9.365-9.158-22.173-14.811-36.307-14.811c-28.686,0-51.941,23.255-51.941,51.941 s23.256,51.941,51.941,51.941c14.133,0,26.942-5.653,36.307-14.811C155.024,217.591,148.186,219.429,140.919,219.429z"/><polygon style="fill:#ffda44" points="152.811 147.545 160.304 163.213 177.224 159.303 169.647 174.929 183.255 185.721 166.312 189.54 166.36 206.907 152.811 196.041 139.262 206.907 139.309 189.54 122.366 185.721 135.974 174.929 128.395 159.303 145.317 163.213"/></g></svg>