<svg xmlns="http://www.w3.org/2000/svg" xmlns:xlink="http://www.w3.org/1999/xlink" id="Capa_1" x="0" y="0" version="1.1" viewBox="0 0 512 512" xml:space="preserve" style="enable-background:new 0 0 512 512"><rect style="fill:#f0f0f0" width="512" height="341.326" y="85.337"/><rect style="fill:#0052b4" width="512" height="113.775" y="199.112"/><rect style="fill:#d80027" width="512" height="113.775" y="312.888"/><path style="fill:#f0f0f0" d="M233.606,196.639v14.837c0,34.081-44.522,44.522-44.522,44.522s-44.522-10.44-44.522-44.522v-14.837 l-0.145-44.188l89.043-0.266L233.606,196.639z"/><path style="fill:#0052b4" d="M233.606,196.639v14.837c0,34.081-44.522,44.522-44.522,44.522s-44.522-10.44-44.522-44.522v-14.837 l-0.145-44.188l89.043-0.266L233.606,196.639z"/><path style="fill:#f0f0f0" d="M233.606,196.639v14.837c0,34.081-44.522,44.522-44.522,44.522s-44.522-10.44-44.522-44.522v-14.837 l14.848,14.837l29.674-22.261l29.685,22.261L233.606,196.639z"/></svg>